<svg width="50" height="51" viewBox="0 0 50 51" fill="none" xmlns="http://www.w3.org/2000/svg">
<g id="svg">
<path id="Vector" d="M36.618 18.3785H45.118C46.4514 18.3785 47.5903 17.9062 48.5347 16.9618C49.4791 16.022 49.9514 14.8831 49.9514 13.5451C49.9514 12.3414 49.5694 11.2928 48.8055 10.3993C48.0416 9.50116 47.0879 8.97106 45.9444 8.80903H45.8958C45.7014 6.49884 44.7592 4.56366 43.0694 3.00347C41.375 1.43866 39.3727 0.65625 37.0625 0.65625C35.368 0.65625 33.8217 1.09606 32.4236 1.97569C31.0208 2.85532 29.9467 3.99421 29.2014 5.39236V5.44097C28.6134 4.95486 27.9606 4.57292 27.243 4.29514C26.5301 4.01736 25.7662 3.87847 24.9514 3.87847C24.4653 3.87847 23.993 3.93634 23.5347 4.05208C23.081 4.16319 22.6412 4.31597 22.2153 4.51042L22.2639 4.46181C21.6157 4.04051 20.9074 3.70718 20.1389 3.46181C19.375 3.22106 18.5694 3.10069 17.7222 3.10069C15.7685 3.10069 14.0602 3.70949 12.5972 4.92708C11.1342 6.14931 10.206 7.67245 9.81247 9.49653V9.54514C9.78007 9.54514 9.74766 9.54514 9.71525 9.54514C9.68284 9.54514 9.66664 9.54514 9.66664 9.54514C8.36571 9.54514 7.21757 9.92708 6.2222 10.691C5.23145 11.4549 4.57405 12.4062 4.24997 13.5451L4.20136 13.5937C3.03007 13.7558 2.04395 14.2928 1.24303 15.2049C0.446732 16.1169 0.048584 17.1748 0.048584 18.3785C0.048584 19.7164 0.520806 20.8576 1.46525 21.8021C2.4097 22.7419 3.54858 23.2118 4.88192 23.2118H12.1111C12.0787 23.3785 12.0625 23.5266 12.0625 23.6562C12.0625 23.7859 12.0625 23.9155 12.0625 24.0451V30.1007C12.0625 30.5868 12.1759 31.0336 12.4028 31.441C12.6296 31.8484 12.9398 32.1817 13.3333 32.441L10.2083 44.2118H12.0625C12.0625 44.2118 12.0694 44.2118 12.0833 44.2118C12.1018 44.2118 12.1111 44.2118 12.1111 44.2118C12.4028 44.2118 12.6944 44.2674 12.9861 44.3785C13.2824 44.4942 13.5278 44.6493 13.7222 44.8438C14.0787 45.14 14.4861 45.3762 14.9444 45.5521C15.3981 45.7326 15.868 45.8229 16.3541 45.8229C16.8773 45.8229 17.3588 45.7326 17.7986 45.5521C18.2384 45.3762 18.6365 45.14 18.993 44.8438C19.0578 44.8113 19.1157 44.772 19.1666 44.7257C19.2129 44.6748 19.2685 44.6331 19.3333 44.6007V47.4826C19.3333 48.3623 19.6504 49.11 20.2847 49.7257C20.9236 50.3461 21.6805 50.6562 22.5555 50.6562C23.0463 50.6562 23.4953 50.559 23.9028 50.3646C24.3102 50.1701 24.6597 49.9086 24.9514 49.5799C25.0162 49.6123 25.0648 49.6609 25.0972 49.7257C25.3889 50.022 25.7315 50.2512 26.125 50.4132C26.5139 50.5752 26.9213 50.6562 27.3472 50.6562C27.3796 50.6562 27.3958 50.6562 27.3958 50.6562C27.3958 50.6562 27.412 50.6562 27.4444 50.6562C28.3194 50.6562 29.0671 50.3461 29.6875 49.7257C30.3078 49.11 30.618 48.3623 30.618 47.4826V44.6007C30.6504 44.6331 30.699 44.6748 30.7639 44.7257C30.8287 44.772 30.8773 44.8113 30.9097 44.8438C31.2662 45.14 31.6736 45.3762 32.1319 45.5521C32.5856 45.7326 33.0555 45.8229 33.5416 45.8229C34.0648 45.8229 34.5532 45.7326 35.0069 45.5521C35.4653 45.3762 35.8565 45.14 36.1805 44.8438C36.4074 44.6493 36.6597 44.4942 36.9375 44.3785C37.2153 44.2674 37.5162 44.2118 37.8403 44.2118C37.8403 44.2118 37.8565 44.2118 37.8889 44.2118H39.743L32.9583 21.066C33.6759 20.7743 34.3426 20.3993 34.9583 19.941C35.5787 19.4873 36.1319 18.9826 36.618 18.4271V18.3785ZM37.0625 2.26736C38.9514 2.26736 40.5787 2.89468 41.9444 4.14931C43.3102 5.39931 44.0903 6.93634 44.2847 8.76042V8.80903C43.1458 9.00347 42.1944 9.54977 41.4305 10.4479C40.6666 11.3414 40.2847 12.3738 40.2847 13.5451H41.8958C41.8958 12.6655 42.2129 11.9086 42.8472 11.2743C43.4815 10.64 44.2384 10.3229 45.118 10.3229C46.0301 10.3229 46.794 10.64 47.4097 11.2743C48.0301 11.9086 48.3403 12.6655 48.3403 13.5451C48.3403 14.4572 48.0301 15.2234 47.4097 15.8438C46.794 16.4595 46.0301 16.7674 45.118 16.7674H37.6944C38.0185 16.184 38.2639 15.559 38.4305 14.8924C38.5926 14.2211 38.6736 13.5127 38.6736 12.7674V6.71181C38.6736 5.9294 38.3958 5.26273 37.8403 4.71181C37.2893 4.15625 36.6227 3.87847 35.8403 3.87847C35.0578 3.87847 34.3912 4.15625 33.8403 4.71181C33.2847 5.26273 33.0069 5.9294 33.0069 6.71181V11.934C33.0069 12.8461 32.6991 13.6123 32.0833 14.2326C31.4629 14.8484 30.6967 15.1562 29.7847 15.1562H29.2014C29.8819 14.5729 30.419 13.8646 30.8125 13.0312C31.2014 12.2025 31.3958 11.2998 31.3958 10.3229C31.3958 9.67477 31.3055 9.04745 31.125 8.44097C30.949 7.83912 30.6805 7.27893 30.3194 6.76042C30.875 5.42708 31.7639 4.34375 32.9861 3.51042C34.2037 2.68171 35.5625 2.26736 37.0625 2.26736ZM29.7847 10.3229C29.7847 11.6562 29.3125 12.7951 28.368 13.7396C27.4236 14.684 26.2847 15.1562 24.9514 15.1562C23.618 15.1562 22.4791 14.684 21.5347 13.7396C20.5903 12.7951 20.118 11.6562 20.118 10.3229C20.118 8.98958 20.5903 7.85069 21.5347 6.90625C22.4791 5.96181 23.618 5.48958 24.9514 5.48958C26.2847 5.48958 27.4236 5.96181 28.368 6.90625C29.3125 7.85069 29.7847 8.98958 29.7847 10.3229ZM12.4028 21.6493H4.88192C3.96988 21.6493 3.20599 21.3322 2.59025 20.6979C1.96988 20.0637 1.6597 19.2905 1.6597 18.3785C1.6597 17.5035 1.96988 16.7465 2.59025 16.1076C3.20599 15.4734 3.96988 15.1562 4.88192 15.1562C5.76155 15.1562 6.51849 15.4734 7.15275 16.1076C7.78701 16.7465 8.10414 17.5035 8.10414 18.3785H9.71525C9.71525 17.2396 9.35877 16.2303 8.64581 15.3507C7.92821 14.4757 7.01618 13.9225 5.9097 13.691C6.20136 12.9456 6.68053 12.3368 7.3472 11.8646C8.01386 11.3924 8.77081 11.1562 9.61803 11.1562C9.74766 11.1562 9.87729 11.1632 10.0069 11.1771C10.1412 11.1956 10.2569 11.2049 10.3541 11.2049L11.1805 11.3507L11.2778 10.5174C11.4398 8.85995 12.1319 7.47801 13.3541 6.37153C14.5764 5.26505 16.0324 4.71181 17.7222 4.71181C18.2778 4.71181 18.8148 4.77662 19.3333 4.90625C19.8565 5.03588 20.3449 5.23032 20.7986 5.48958L20.75 5.44097C20.0694 6.02893 19.5254 6.74421 19.118 7.5868C18.7106 8.43403 18.5069 9.34606 18.5069 10.3229C18.5069 11.2998 18.7106 12.2025 19.118 13.0312C19.5254 13.8646 20.0532 14.5729 20.7014 15.1562C18.7477 15.2211 17.0139 15.8576 15.5 17.066C13.9861 18.2697 12.9537 19.765 12.4028 21.5521V21.6493ZM18.0208 43.5729C17.7893 43.772 17.537 43.9271 17.2639 44.0382C16.9861 44.1539 16.6828 44.2118 16.3541 44.2118C16.0301 44.2118 15.7291 44.1539 15.4514 44.0382C15.1782 43.9271 14.9259 43.772 14.6944 43.5729C14.3703 43.2812 14.0046 43.0544 13.5972 42.8924C13.1898 42.7303 12.7592 42.6331 12.3055 42.6007L14.8472 32.934H14.8958C15.6736 32.934 16.3403 32.6562 16.8958 32.1007C17.4467 31.5498 17.7222 30.8831 17.7222 30.1007V24.0451C17.7222 23.522 17.8703 23.059 18.1666 22.6562C18.4583 22.2488 18.831 21.9479 19.2847 21.7535H19.3333V42.7951C19.074 42.8924 18.8379 43.0058 18.625 43.1354C18.4166 43.265 18.2153 43.4109 18.0208 43.5729ZM29.7847 19.9896H29.0069V47.4826C29.0069 47.9039 28.8518 48.2697 28.5416 48.5799C28.2315 48.89 27.8495 49.0451 27.3958 49.0451C27.3958 49.0451 27.3865 49.0451 27.368 49.0451C27.3541 49.0451 27.3472 49.0451 27.3472 49.0451C26.9213 49.0451 26.5532 48.89 26.243 48.5799C25.9375 48.2697 25.7847 47.9039 25.7847 47.4826V32.934H24.1666V47.4826C24.1666 47.9039 24.0046 48.2697 23.6805 48.5799C23.3565 48.89 22.9815 49.0451 22.5555 49.0451C22.5555 49.0451 22.5486 49.0451 22.5347 49.0451C22.5162 49.0451 22.5069 49.0451 22.5069 49.0451C22.0856 49.0451 21.7199 48.89 21.4097 48.5799C21.0995 48.2697 20.9444 47.9039 20.9444 47.4826V19.9896H20.118C19.0115 19.9896 18.0671 20.39 17.2847 21.191C16.5023 21.9873 16.1111 22.9387 16.1111 24.0451V30.1007C16.1111 30.4248 15.9907 30.7095 15.75 30.9549C15.5046 31.2002 15.2199 31.3229 14.8958 31.3229C14.5347 31.3229 14.2407 31.2002 14.0139 30.9549C13.787 30.7095 13.6736 30.4248 13.6736 30.1007V24.0451C13.6736 22.0266 14.3819 20.309 15.7986 18.8924C17.2106 17.4757 18.9259 16.7674 20.9444 16.7674H29.7847C31.118 16.7674 32.2569 16.2951 33.2014 15.3507C34.1458 14.4109 34.618 13.272 34.618 11.934V6.71181C34.618 6.38773 34.7407 6.10301 34.9861 5.85764C35.2315 5.61227 35.5162 5.48958 35.8403 5.48958C36.1643 5.48958 36.4491 5.61227 36.6944 5.85764C36.9398 6.10301 37.0625 6.38773 37.0625 6.71181V12.7674C37.0625 14.7535 36.3541 16.4549 34.9375 17.8715C33.5208 19.2836 31.8032 19.9896 29.7847 19.9896ZM31.3958 21.4549L37.5972 42.6007C37.1435 42.6331 36.7129 42.7303 36.3055 42.8924C35.8981 43.0544 35.5486 43.2812 35.2569 43.5729C35.0254 43.772 34.7639 43.9271 34.4722 44.0382C34.1805 44.1539 33.8703 44.2118 33.5416 44.2118C33.25 44.2118 32.9583 44.1539 32.6666 44.0382C32.375 43.9271 32.1134 43.772 31.8819 43.5729C31.7199 43.4109 31.5347 43.265 31.3264 43.1354C31.1134 43.0058 30.8935 42.9086 30.6666 42.8438L30.618 42.7951V21.6007C30.7477 21.5683 30.8773 21.5451 31.0069 21.5312C31.1365 21.5127 31.2662 21.4873 31.3958 21.4549ZM24.4653 22.434L25.7291 18.6771L24.2222 18.1354L22.2153 24.0451H25.2916L22.6041 29.316L24.0694 30.0521L27.8819 22.434H24.4653ZM38.6736 23.2118V21.6007H40.2847V23.2118H38.6736ZM36.2778 25.6562V24.0451H37.8889V25.6562H36.2778ZM38.6736 28.1007V26.4896H40.2847V28.1007H38.6736ZM41.1111 25.6562V24.0451H42.7222V25.6562H41.1111ZM4.7847 31.3229V29.7118H6.39581V31.3229H4.7847ZM2.39581 33.7118V32.1007H4.00692V33.7118H2.39581ZM4.7847 36.1562V34.5451H6.39581V36.1562H4.7847ZM7.22914 33.7118V32.1007H8.84025V33.7118H7.22914ZM41.8958 36.934V35.3229H43.5069V36.934H41.8958ZM39.5 39.3785V37.7674H41.1111V39.3785H39.5ZM41.8958 41.7674V40.1562H43.5069V41.7674H41.8958ZM44.3333 39.3785V37.7674H45.9444V39.3785H44.3333ZM45.9444 29.7118V28.1007H47.5555V29.7118H45.9444ZM43.5069 32.1007V30.4896H45.118V32.1007H43.5069ZM45.9444 34.5451V32.934H47.5555V34.5451H45.9444ZM48.3403 32.1007V30.4896H49.9514V32.1007H48.3403Z" fill="#D70147"/>
</g>
</svg>
