<svg width="50" height="51" viewBox="0 0 50 51" fill="none" xmlns="http://www.w3.org/2000/svg">
<g id="svg">
<path id="Vector" d="M42.9722 0.3125H7.13197C6.77086 0.3125 6.45142 0.44213 6.17364 0.701389C5.90049 0.965278 5.76392 1.29167 5.76392 1.68056V39.1806C5.76392 39.4074 5.82873 39.6273 5.95836 39.8403C6.08799 40.0532 6.25003 40.2245 6.44447 40.3542H6.49308L24.4167 50.1667C24.5139 50.1991 24.6111 50.2315 24.7084 50.2639C24.8056 50.2963 24.919 50.3125 25.0486 50.3125C25.1783 50.3125 25.2917 50.2963 25.3889 50.2639C25.4861 50.2315 25.5834 50.1991 25.6806 50.1667L43.6042 40.3542C43.7986 40.2245 43.9537 40.0602 44.0695 39.8611C44.1806 39.6667 44.2361 39.4398 44.2361 39.1806V1.68056C44.2361 1.64815 44.2361 1.63194 44.2361 1.63194C44.2361 1.27546 44.1158 0.965278 43.875 0.701389C43.6297 0.44213 43.3287 0.3125 42.9722 0.3125ZM41.5556 3V38.3472L25 47.4306L8.44447 38.3472V3H41.5556ZM25 39.6181L34.4722 34.4444V31.9514L25 36.9792L15.5278 31.9514V34.4444L25 39.6181ZM25 41.5694L13.8195 35.4722V29.1667L25 35.0278L36.1806 29.1667V35.4722L25 41.5694ZM25 30.2431L34.4722 25.1181V22.625L25 27.6042L15.5278 22.625V25.0694L25 30.2431ZM25 32.1944L13.8195 26.0972V19.7917L25 25.7014L36.1806 19.7917V26.0972L25 32.1944ZM22.3611 14.4722L20.6528 19.7431L25.1459 16.5208L29.6389 19.7917L27.9306 14.4722L32.4236 11.25H26.8542L25.1459 5.97917L23.4375 11.25H17.8681L22.3611 14.4722Z" fill="#D70147"/>
</g>
</svg>
