<svg width="50" height="51" viewBox="0 0 50 51" fill="none" xmlns="http://www.w3.org/2000/svg">
<g id="svg">
<path id="Vector" d="M25 0.984375C21.5509 0.984375 18.3125 1.63484 15.2847 2.93576C12.2245 4.24132 9.5625 6.02373 7.29861 8.28299C5.03935 10.5469 3.25694 13.2089 1.95139 16.2691C0.650463 19.2969 0 22.5353 0 25.9844C0 29.4334 0.650463 32.6719 1.95139 35.6997C3.25694 38.7598 5.03935 41.4219 7.29861 43.6858C9.5625 45.9497 12.2245 47.7321 15.2847 49.033C18.3125 50.3339 21.5509 50.9844 25 50.9844C28.4491 50.9844 31.6875 50.3339 34.7153 49.033C37.7755 47.7321 40.4375 45.9497 42.7014 43.6858C44.9653 41.4219 46.7477 38.7598 48.0486 35.6997C49.3495 32.6719 50 29.4334 50 25.9844C50 22.5353 49.3495 19.2969 48.0486 16.2691C46.7106 13.2413 44.912 10.5955 42.6528 8.3316C40.3889 6.07234 37.7431 4.27373 34.7153 2.93576C31.6875 1.63484 28.4491 0.984375 25 0.984375ZM26.0278 48.8385V45.7622C26.0278 45.4659 25.9282 45.2205 25.7292 45.026C25.5347 44.8316 25.2917 44.7344 25 44.7344C24.7083 44.7344 24.4653 44.8316 24.2708 45.026C24.0718 45.2205 23.9722 45.4659 23.9722 45.7622V48.8385C21.0139 48.7089 18.2315 48.0561 15.625 46.8802C13.0556 45.6765 10.794 44.0978 8.84028 42.1441C6.88657 40.1904 5.30787 37.9288 4.10417 35.3594C2.93287 32.7899 2.28009 30.0237 2.14583 27.0608V27.0122H5.22222C5.51852 27.0122 5.76389 26.9126 5.95833 26.7135C6.15278 26.5191 6.25 26.276 6.25 25.9844C6.25 25.6927 6.15278 25.4497 5.95833 25.2552C5.76389 25.0561 5.51852 24.9566 5.22222 24.9566H2.14583C2.28009 21.9983 2.93287 19.2159 4.10417 16.6094C5.30787 14.0399 6.88657 11.7784 8.84028 9.82465C10.794 7.87095 13.0556 6.29224 15.625 5.08854C18.1944 3.91725 20.9606 3.26447 23.9236 3.13021H23.9722V6.2066C23.9722 6.50289 24.0718 6.74826 24.2708 6.94271C24.4653 7.13715 24.7083 7.23438 25 7.23438C25.2917 7.23438 25.5347 7.13715 25.7292 6.94271C25.9282 6.74826 26.0278 6.50289 26.0278 6.2066V3.13021C28.9907 3.26447 31.7731 3.91725 34.375 5.08854C36.9444 6.29224 39.206 7.87095 41.1597 9.82465C43.1134 11.7784 44.6921 14.0399 45.8958 16.6094C47.0718 19.1788 47.7245 21.945 47.8542 24.908V24.9566H44.7778C44.4815 24.9566 44.2361 25.0561 44.0417 25.2552C43.8472 25.4497 43.75 25.6927 43.75 25.9844C43.75 26.276 43.8472 26.5191 44.0417 26.7135C44.2361 26.9126 44.4815 27.0122 44.7778 27.0122H47.8542C47.7245 29.9751 47.0718 32.7575 45.8958 35.3594C44.6921 37.9288 43.1134 40.1904 41.1597 42.1441C39.206 44.0978 36.9444 45.6765 34.375 46.8802C31.8056 48.0561 29.0394 48.7089 26.0764 48.8385H26.0278ZM35.1042 34.6302L27 26.4705C27 26.4057 27.0093 26.3339 27.0278 26.2552C27.0417 26.1719 27.0648 26.0816 27.0972 25.9844C27.0648 25.7575 27.0162 25.5469 26.9514 25.3524C26.8866 25.1534 26.7894 24.9728 26.6597 24.8108H26.7083L33.25 10.7969C33.2824 10.7321 33.3079 10.6603 33.3264 10.5816C33.3403 10.4983 33.3472 10.408 33.3472 10.3108C33.3472 10.0191 33.25 9.77604 33.0556 9.5816C32.8611 9.38252 32.6181 9.28299 32.3264 9.28299C32.0949 9.28299 31.8912 9.34086 31.7153 9.4566C31.5347 9.57234 31.412 9.72743 31.3472 9.92188L24.8056 23.9358C24.2824 24.0006 23.8426 24.2274 23.4861 24.6163C23.1296 25.0098 22.9514 25.4659 22.9514 25.9844C22.9514 26.5723 23.1551 27.0677 23.5625 27.4705C23.9653 27.8779 24.4444 28.0816 25 28.0816C25.0972 28.0816 25.1875 28.0654 25.2708 28.033C25.3495 28.0006 25.4375 27.9844 25.5347 27.9844H25.4861L33.6458 36.0885C33.7431 36.1904 33.8565 36.2645 33.9861 36.3108C34.1157 36.3617 34.2454 36.3871 34.375 36.3871C34.6667 36.3871 34.9097 36.2876 35.1042 36.0885C35.3032 35.8941 35.4028 35.651 35.4028 35.3594C35.4028 35.2297 35.3773 35.1001 35.3264 34.9705C35.2801 34.8409 35.206 34.7274 35.1042 34.6302Z" fill="#D70147"/>
</g>
</svg>
